# WaveFront *.obj file (generated by Autodesk ATF)

v 0.300000 0.000000 5.350000
v 0.289778 -0.077646 5.350000
v 0.259808 -0.150000 5.350000
v 0.212132 -0.212132 5.350000
v 0.150000 -0.259808 5.350000
v 0.077646 -0.289778 5.350000
v -0.000000 -0.300000 5.350000
v -0.077646 -0.289778 5.350000
v -0.150000 -0.259808 5.350000
v -0.212132 -0.212132 5.350000
v -0.259808 -0.150000 5.350000
v -0.289778 -0.077646 5.350000
v -0.300000 0.000000 5.350000
v -0.289778 0.077646 5.350000
v -0.259808 0.150000 5.350000
v -0.212132 0.212132 5.350000
v -0.150000 0.259808 5.350000
v -0.077646 0.289778 5.350000
v -0.000000 0.300000 5.350000
v 0.077646 0.289778 5.350000
v 0.150000 0.259808 5.350000
v 0.212132 0.212132 5.350000
v 0.259808 0.150000 5.350000
v 0.289778 0.077646 5.350000
v 0.300000 0.000000 0.350000
v 0.289778 0.077646 0.350000
v 0.259808 0.150000 0.350000
v 0.212132 0.212132 0.350000
v 0.150000 0.259808 0.350000
v 0.077646 0.289778 0.350000
v -0.000000 0.300000 0.350000
v -0.077646 0.289778 0.350000
v -0.150000 0.259808 0.350000
v -0.212132 0.212132 0.350000
v -0.259808 0.150000 0.350000
v -0.289778 0.077646 0.350000
v -0.300000 0.000000 0.350000
v -0.289778 -0.077646 0.350000
v -0.259808 -0.150000 0.350000
v -0.212132 -0.212132 0.350000
v -0.150000 -0.259808 0.350000
v -0.077646 -0.289778 0.350000
v -0.000000 -0.300000 0.350000
v 0.077646 -0.289778 0.350000
v 0.150000 -0.259808 0.350000
v 0.212132 -0.212132 0.350000
v 0.259808 -0.150000 0.350000
v 0.289778 -0.077646 0.350000
v 0.300000 0.000000 3.683333
v 0.300000 0.000000 2.016667
v 0.289778 -0.077646 3.683333
v 0.289778 -0.077646 2.016667
v 0.259808 -0.150000 3.683333
v 0.259808 -0.150000 2.016667
v 0.212132 -0.212132 3.683333
v 0.212132 -0.212132 2.016667
v 0.150000 -0.259808 3.683333
v 0.150000 -0.259808 2.016667
v 0.077646 -0.289778 3.683333
v 0.077646 -0.289778 2.016667
v -0.000000 -0.300000 3.683333
v -0.000000 -0.300000 2.016667
v -0.077646 -0.289778 3.683333
v -0.077646 -0.289778 2.016667
v -0.150000 -0.259808 3.683333
v -0.150000 -0.259808 2.016667
v -0.212132 -0.212132 3.683333
v -0.212132 -0.212132 2.016667
v -0.259808 -0.150000 3.683333
v -0.259808 -0.150000 2.016667
v -0.289778 -0.077646 3.683333
v -0.289778 -0.077646 2.016667
v -0.300000 0.000000 3.683333
v -0.300000 0.000000 2.016667
v -0.289778 0.077646 3.683333
v -0.289778 0.077646 2.016667
v -0.259808 0.150000 3.683333
v -0.259808 0.150000 2.016667
v -0.212132 0.212132 3.683333
v -0.212132 0.212132 2.016667
v -0.150000 0.259808 3.683333
v -0.150000 0.259808 2.016667
v -0.077646 0.289778 3.683333
v -0.077646 0.289778 2.016667
v -0.000000 0.300000 3.683333
v -0.000000 0.300000 2.016667
v 0.077646 0.289778 3.683333
v 0.077646 0.289778 2.016667
v 0.150000 0.259808 3.683333
v 0.150000 0.259808 2.016667
v 0.212132 0.212132 3.683333
v 0.212132 0.212132 2.016667
v 0.259808 0.150000 3.683333
v 0.259808 0.150000 2.016667
v 0.289778 0.077646 3.683333
v 0.289778 0.077646 2.016667
v 0.550000 -0.550000 -0.350000
v 0.550000 -0.550000 0.350000
v -0.550000 -0.550000 0.350000
v -0.550000 -0.550000 -0.350000
v 0.383013 -0.550000 -0.336603
v -0.483013 -0.550000 0.163397
v -0.383013 -0.550000 0.336603
v 0.483013 -0.550000 -0.163397
v -0.550000 0.550000 -0.350000
v -0.550000 0.550000 0.350000
v 0.550000 0.550000 0.350000
v 0.550000 0.550000 -0.350000
v -0.383013 0.550000 -0.336603
v 0.483013 0.550000 0.163397
v 0.383013 0.550000 0.336603
v -0.483013 0.550000 -0.163397
v 0.550000 0.383013 -0.336603
v 0.550000 -0.483013 0.163397
v 0.550000 -0.383013 0.336603
v 0.550000 0.483013 -0.163397
v -0.550000 -0.383013 -0.336603
v -0.550000 0.483013 0.163397
v -0.550000 0.383013 0.336603
v -0.550000 -0.483013 -0.163397
v -3.250000 0.383013 0.336603
v -3.250000 -0.483013 -0.163397
v -3.250000 0.483013 0.163397
v -3.250000 -0.383013 -0.336603
v 3.250000 -0.383013 0.336603
v 3.250000 0.483013 -0.163397
v 3.250000 -0.483013 0.163397
v 3.250000 0.383013 -0.336603
v 0.383013 3.250000 0.336603
v -0.483013 3.250000 -0.163397
v 0.483013 3.250000 0.163397
v -0.383013 3.250000 -0.336603
v -0.383013 -3.250000 0.336603
v 0.483013 -3.250000 -0.163397
v -0.483013 -3.250000 0.163397
v 0.383013 -3.250000 -0.336603
vt -5.000000 0.863938 0.000000
vt -3.333333 0.863938 0.000000
vt -5.000000 0.942478 0.000000
vt -3.333333 0.942478 0.000000
vt -5.000000 -0.942478 0.000000
vt -3.333333 -0.942478 0.000000
vt -5.000000 -0.863938 0.000000
vt -3.333333 -0.863938 0.000000
vt -5.000000 -0.785398 0.000000
vt -3.333333 -0.785398 0.000000
vt -5.000000 -0.706858 0.000000
vt -3.333333 -0.706858 0.000000
vt -5.000000 -0.628319 0.000000
vt -3.333333 -0.628319 0.000000
vt -5.000000 -0.549779 0.000000
vt -3.333333 -0.549779 0.000000
vt -5.000000 -0.471239 0.000000
vt -3.333333 -0.471239 0.000000
vt -5.000000 -0.392699 0.000000
vt -3.333333 -0.392699 0.000000
vt -5.000000 -0.314159 0.000000
vt -3.333333 -0.314159 0.000000
vt -5.000000 -0.235619 0.000000
vt -3.333333 -0.235619 0.000000
vt -5.000000 -0.157080 0.000000
vt -3.333333 -0.157080 0.000000
vt -5.000000 -0.078540 0.000000
vt -3.333333 -0.078540 0.000000
vt -5.000000 0.000000 0.000000
vt -3.333333 0.000000 0.000000
vt -5.000000 0.078540 0.000000
vt -3.333333 0.078540 0.000000
vt -5.000000 0.157080 0.000000
vt -3.333333 0.157080 0.000000
vt -5.000000 0.235619 0.000000
vt -3.333333 0.235619 0.000000
vt -5.000000 0.314159 0.000000
vt -3.333333 0.314159 0.000000
vt -5.000000 0.392699 0.000000
vt -3.333333 0.392699 0.000000
vt -5.000000 0.471239 0.000000
vt -3.333333 0.471239 0.000000
vt -5.000000 0.549779 0.000000
vt -3.333333 0.549779 0.000000
vt -5.000000 0.628319 0.000000
vt -3.333333 0.628319 0.000000
vt -5.000000 0.706858 0.000000
vt -3.333333 0.706858 0.000000
vt -5.000000 0.785398 0.000000
vt -3.333333 0.785398 0.000000
vt -0.000000 -0.863938 0.000000
vt -1.666667 -0.863938 0.000000
vt -0.000000 -0.942478 0.000000
vt -1.666667 -0.942478 0.000000
vt -0.000000 0.942478 0.000000
vt -1.666667 0.942478 0.000000
vt -0.000000 0.863938 0.000000
vt -1.666667 0.863938 0.000000
vt -0.000000 0.785398 0.000000
vt -1.666667 0.785398 0.000000
vt -0.000000 0.706858 0.000000
vt -1.666667 0.706858 0.000000
vt -0.000000 0.628319 0.000000
vt -1.666667 0.628319 0.000000
vt -0.000000 0.549779 0.000000
vt -1.666667 0.549779 0.000000
vt -0.000000 0.471239 0.000000
vt -1.666667 0.471239 0.000000
vt -0.000000 0.392699 0.000000
vt -1.666667 0.392699 0.000000
vt -0.000000 0.314159 0.000000
vt -1.666667 0.314159 0.000000
vt -0.000000 0.235619 0.000000
vt -1.666667 0.235619 0.000000
vt -0.000000 0.157080 0.000000
vt -1.666667 0.157080 0.000000
vt -0.000000 0.078540 0.000000
vt -1.666667 0.078540 0.000000
vt -0.000000 0.000000 0.000000
vt -1.666667 0.000000 0.000000
vt -0.000000 -0.078540 0.000000
vt -1.666667 -0.078540 0.000000
vt -0.000000 -0.157080 0.000000
vt -1.666667 -0.157080 0.000000
vt -0.000000 -0.235619 0.000000
vt -1.666667 -0.235619 0.000000
vt -0.000000 -0.314159 0.000000
vt -1.666667 -0.314159 0.000000
vt -0.000000 -0.392699 0.000000
vt -1.666667 -0.392699 0.000000
vt -0.000000 -0.471239 0.000000
vt -1.666667 -0.471239 0.000000
vt -0.000000 -0.549779 0.000000
vt -1.666667 -0.549779 0.000000
vt -0.000000 -0.628319 0.000000
vt -1.666667 -0.628319 0.000000
vt -0.000000 -0.706858 0.000000
vt -1.666667 -0.706858 0.000000
vt -0.000000 -0.785398 0.000000
vt -1.666667 -0.785398 0.000000
vt -0.289778 -0.077646 0.000000
vt 0.289778 -0.077646 0.000000
vt -0.300000 -0.000000 0.000000
vt 0.300000 0.000000 0.000000
vt -0.289778 0.077646 0.000000
vt 0.289778 0.077646 0.000000
vt -0.259808 0.150000 0.000000
vt 0.259808 0.150000 0.000000
vt -0.212132 0.212132 0.000000
vt 0.212132 0.212132 0.000000
vt -0.150000 0.259808 0.000000
vt 0.150000 0.259808 0.000000
vt -0.077646 0.289778 0.000000
vt 0.077646 0.289778 0.000000
vt 0.000000 0.300000 0.000000
vt 0.259808 -0.150000 0.000000
vt -0.259808 -0.150000 0.000000
vt 0.212132 -0.212132 0.000000
vt -0.212132 -0.212132 0.000000
vt 0.150000 -0.259808 0.000000
vt -0.150000 -0.259808 0.000000
vt 0.077646 -0.289778 0.000000
vt -0.077646 -0.289778 0.000000
vt 0.000000 -0.300000 0.000000
vt 1.100000 0.350000 0.000000
vt 1.033013 -0.163397 0.000000
vt 1.100000 -0.350000 0.000000
vt 0.933013 -0.336603 0.000000
vt 0.000000 -0.350000 0.000000
vt 0.066987 0.163397 0.000000
vt 0.000000 0.350000 0.000000
vt 0.166987 0.336603 0.000000
vt 1.100000 0.350000 0.000000
vt 1.033013 -0.163397 0.000000
vt 1.100000 -0.350000 0.000000
vt 0.933013 -0.336603 0.000000
vt 0.000000 -0.350000 0.000000
vt 0.066987 0.163397 0.000000
vt 0.000000 0.350000 0.000000
vt 0.166987 0.336603 0.000000
vt 1.100000 0.350000 0.000000
vt 1.033013 -0.163397 0.000000
vt 1.100000 -0.350000 0.000000
vt 0.933013 -0.336603 0.000000
vt 0.000000 -0.350000 0.000000
vt 0.066987 0.163397 0.000000
vt 0.000000 0.350000 0.000000
vt 0.166987 0.336603 0.000000
vt 1.100000 0.350000 0.000000
vt 1.033013 -0.163397 0.000000
vt 1.100000 -0.350000 0.000000
vt 0.933013 -0.336603 0.000000
vt 0.000000 -0.350000 0.000000
vt 0.066987 0.163397 0.000000
vt 0.000000 0.350000 0.000000
vt 0.166987 0.336603 0.000000
vt 0.550000 0.550000 0.000000
vt -0.550000 0.550000 0.000000
vt 0.550000 -0.550000 0.000000
vt -0.550000 -0.550000 0.000000
vt 0.289778 -0.077646 0.000000
vt 0.550000 -0.550000 0.000000
vt 0.300000 0.000000 0.000000
vt 0.550000 0.550000 0.000000
vt 0.289778 0.077646 0.000000
vt 0.259808 0.150000 0.000000
vt 0.212132 0.212132 0.000000
vt 0.150000 0.259808 0.000000
vt 0.077646 0.289778 0.000000
vt -0.000000 0.300000 0.000000
vt -0.550000 0.550000 0.000000
vt -0.077646 0.289778 0.000000
vt -0.150000 0.259808 0.000000
vt -0.212132 0.212132 0.000000
vt -0.259808 0.150000 0.000000
vt -0.289778 0.077646 0.000000
vt -0.300000 0.000000 0.000000
vt -0.550000 -0.550000 0.000000
vt -0.289778 -0.077646 0.000000
vt -0.259808 -0.150000 0.000000
vt -0.212132 -0.212132 0.000000
vt -0.150000 -0.259808 0.000000
vt -0.077646 -0.289778 0.000000
vt -0.000000 -0.300000 0.000000
vt 0.077646 -0.289778 0.000000
vt 0.150000 -0.259808 0.000000
vt 0.212132 -0.212132 0.000000
vt 0.259808 -0.150000 0.000000
vt 0.000000 0.550000 0.000000
vt 1.000000 0.550000 0.000000
vt 0.000000 3.250000 0.000000
vt 1.000000 3.250000 0.000000
vt 0.000000 0.550000 0.000000
vt 0.200000 0.550000 0.000000
vt 0.000000 3.250000 0.000000
vt 0.200000 3.250000 0.000000
vt -0.000000 0.550000 0.000000
vt 1.000000 0.550000 0.000000
vt -0.000000 3.250000 0.000000
vt 1.000000 3.250000 0.000000
vt -0.000000 0.550000 0.000000
vt 0.200000 0.550000 0.000000
vt -0.000000 3.250000 0.000000
vt 0.200000 3.250000 0.000000
vt -0.100000 -0.500000 0.000000
vt 0.100000 -0.500000 0.000000
vt -0.100000 0.500000 0.000000
vt 0.100000 0.500000 0.000000
vt -0.000000 0.550000 0.000000
vt 1.000000 0.550000 0.000000
vt 0.000000 3.250000 0.000000
vt 1.000000 3.250000 0.000000
vt -0.000000 0.550000 0.000000
vt 0.200000 0.550000 0.000000
vt 0.000000 3.250000 0.000000
vt 0.200000 3.250000 0.000000
vt 0.000000 0.550000 0.000000
vt 1.000000 0.550000 0.000000
vt -0.000000 3.250000 0.000000
vt 1.000000 3.250000 0.000000
vt 0.000000 0.550000 0.000000
vt 0.200000 0.550000 0.000000
vt -0.000000 3.250000 0.000000
vt 0.200000 3.250000 0.000000
vt -0.100000 -0.500000 0.000000
vt 0.100000 -0.500000 0.000000
vt -0.100000 0.500000 0.000000
vt 0.100000 0.500000 0.000000
vt 0.000000 0.550000 0.000000
vt 1.000000 0.550000 0.000000
vt 0.000000 3.250000 0.000000
vt 1.000000 3.250000 0.000000
vt 0.000000 0.550000 0.000000
vt 0.200000 0.550000 0.000000
vt 0.000000 3.250000 0.000000
vt 0.200000 3.250000 0.000000
vt 0.000000 0.550000 0.000000
vt 1.000000 0.550000 0.000000
vt 0.000000 3.250000 0.000000
vt 1.000000 3.250000 0.000000
vt 0.000000 0.550000 0.000000
vt 0.200000 0.550000 0.000000
vt 0.000000 3.250000 0.000000
vt 0.200000 3.250000 0.000000
vt -0.100000 -0.500000 0.000000
vt 0.100000 -0.500000 0.000000
vt -0.100000 0.500000 0.000000
vt 0.100000 0.500000 0.000000
vt -0.000000 0.550000 0.000000
vt 1.000000 0.550000 0.000000
vt 0.000000 3.250000 0.000000
vt 1.000000 3.250000 0.000000
vt -0.000000 0.550000 0.000000
vt 0.200000 0.550000 0.000000
vt 0.000000 3.250000 0.000000
vt 0.200000 3.250000 0.000000
vt 0.000000 0.550000 0.000000
vt 1.000000 0.550000 0.000000
vt -0.000000 3.250000 0.000000
vt 1.000000 3.250000 0.000000
vt 0.000000 0.550000 0.000000
vt 0.200000 0.550000 0.000000
vt -0.000000 3.250000 0.000000
vt 0.200000 3.250000 0.000000
vt -0.100000 -0.500000 0.000000
vt 0.100000 -0.500000 0.000000
vt -0.100000 0.500000 0.000000
vt 0.100000 0.500000 0.000000
vn 0.965926 -0.258819 -0.000000
vn 0.965926 -0.258819 -0.000000
vn 1.000000 -0.000000 -0.000000
vn 1.000000 -0.000000 -0.000000
vn 0.965926 0.258819 -0.000000
vn 0.965926 0.258819 -0.000000
vn 0.866025 0.500000 -0.000000
vn 0.866025 0.500000 -0.000000
vn 0.707107 0.707107 -0.000000
vn 0.707107 0.707107 -0.000000
vn 0.500000 0.866025 -0.000000
vn 0.500000 0.866025 -0.000000
vn 0.258819 0.965926 -0.000000
vn 0.258819 0.965926 -0.000000
vn -0.000000 1.000000 -0.000000
vn -0.000000 1.000000 -0.000000
vn -0.258819 0.965926 -0.000000
vn -0.258819 0.965926 -0.000000
vn -0.500000 0.866025 -0.000000
vn -0.500000 0.866025 -0.000000
vn -0.707107 0.707107 -0.000000
vn -0.707107 0.707107 -0.000000
vn -0.866025 0.500000 -0.000000
vn -0.866025 0.500000 -0.000000
vn -0.965926 0.258819 -0.000000
vn -0.965926 0.258819 -0.000000
vn -1.000000 -0.000000 0.000000
vn -1.000000 -0.000000 0.000000
vn -0.965926 -0.258819 0.000000
vn -0.965926 -0.258819 0.000000
vn -0.866025 -0.500000 0.000000
vn -0.866025 -0.500000 0.000000
vn -0.707107 -0.707107 0.000000
vn -0.707107 -0.707107 0.000000
vn -0.500000 -0.866025 0.000000
vn -0.500000 -0.866025 0.000000
vn -0.258819 -0.965926 0.000000
vn -0.258819 -0.965926 0.000000
vn -0.000000 -1.000000 0.000000
vn -0.000000 -1.000000 0.000000
vn 0.258819 -0.965926 -0.000000
vn 0.258819 -0.965926 -0.000000
vn 0.500000 -0.866025 -0.000000
vn 0.500000 -0.866025 -0.000000
vn 0.707107 -0.707107 -0.000000
vn 0.707107 -0.707107 -0.000000
vn 0.866025 -0.500000 -0.000000
vn 0.866025 -0.500000 -0.000000
vn 0.965926 0.258819 -0.000000
vn 0.965926 0.258819 -0.000000
vn 1.000000 0.000000 -0.000000
vn 1.000000 0.000000 -0.000000
vn 0.965926 -0.258819 -0.000000
vn 0.965926 -0.258819 -0.000000
vn 0.866025 -0.500000 -0.000000
vn 0.866025 -0.500000 -0.000000
vn 0.707107 -0.707107 -0.000000
vn 0.707107 -0.707107 -0.000000
vn 0.500000 -0.866025 -0.000000
vn 0.500000 -0.866025 -0.000000
vn 0.258819 -0.965926 -0.000000
vn 0.258819 -0.965926 -0.000000
vn -0.000000 -1.000000 0.000000
vn -0.000000 -1.000000 0.000000
vn -0.258819 -0.965926 0.000000
vn -0.258819 -0.965926 0.000000
vn -0.500000 -0.866025 0.000000
vn -0.500000 -0.866025 0.000000
vn -0.707107 -0.707107 0.000000
vn -0.707107 -0.707107 0.000000
vn -0.866025 -0.500000 0.000000
vn -0.866025 -0.500000 0.000000
vn -0.965926 -0.258819 0.000000
vn -0.965926 -0.258819 0.000000
vn -1.000000 -0.000000 0.000000
vn -1.000000 -0.000000 0.000000
vn -0.965926 0.258819 -0.000000
vn -0.965926 0.258819 -0.000000
vn -0.866025 0.500000 -0.000000
vn -0.866025 0.500000 -0.000000
vn -0.707107 0.707107 -0.000000
vn -0.707107 0.707107 -0.000000
vn -0.500000 0.866025 -0.000000
vn -0.500000 0.866025 -0.000000
vn -0.258819 0.965926 -0.000000
vn -0.258819 0.965926 -0.000000
vn -0.000000 1.000000 -0.000000
vn -0.000000 1.000000 -0.000000
vn 0.258819 0.965926 -0.000000
vn 0.258819 0.965926 -0.000000
vn 0.500000 0.866025 -0.000000
vn 0.500000 0.866025 -0.000000
vn 0.707107 0.707107 -0.000000
vn 0.707107 0.707107 -0.000000
vn 0.866025 0.500000 -0.000000
vn 0.866025 0.500000 -0.000000
vn 0.000000 0.000000 1.000000
vn 0.000000 0.000000 1.000000
vn 0.000000 0.000000 1.000000
vn 0.000000 0.000000 1.000000
vn 0.000000 0.000000 1.000000
vn 0.000000 0.000000 1.000000
vn 0.000000 0.000000 1.000000
vn 0.000000 0.000000 1.000000
vn 0.000000 0.000000 1.000000
vn 0.000000 0.000000 1.000000
vn 0.000000 0.000000 1.000000
vn 0.000000 0.000000 1.000000
vn 0.000000 0.000000 1.000000
vn 0.000000 0.000000 1.000000
vn 0.000000 0.000000 1.000000
vn 0.000000 0.000000 1.000000
vn 0.000000 0.000000 1.000000
vn 0.000000 0.000000 1.000000
vn 0.000000 0.000000 1.000000
vn 0.000000 0.000000 1.000000
vn 0.000000 0.000000 1.000000
vn 0.000000 0.000000 1.000000
vn 0.000000 0.000000 1.000000
vn 0.000000 0.000000 1.000000
vn 0.000000 -1.000000 0.000000
vn 0.000000 -1.000000 0.000000
vn 0.000000 -1.000000 0.000000
vn 0.000000 -1.000000 0.000000
vn 0.000000 -1.000000 0.000000
vn 0.000000 -1.000000 0.000000
vn 0.000000 -1.000000 0.000000
vn 0.000000 -1.000000 0.000000
vn 0.000000 1.000000 -0.000000
vn 0.000000 1.000000 -0.000000
vn 0.000000 1.000000 -0.000000
vn 0.000000 1.000000 -0.000000
vn 0.000000 1.000000 -0.000000
vn 0.000000 1.000000 -0.000000
vn 0.000000 1.000000 -0.000000
vn 0.000000 1.000000 -0.000000
vn 1.000000 0.000000 0.000000
vn 1.000000 0.000000 0.000000
vn 1.000000 0.000000 0.000000
vn 1.000000 0.000000 0.000000
vn 1.000000 0.000000 0.000000
vn 1.000000 0.000000 0.000000
vn 1.000000 0.000000 0.000000
vn 1.000000 0.000000 0.000000
vn -1.000000 0.000000 0.000000
vn -1.000000 0.000000 0.000000
vn -1.000000 0.000000 0.000000
vn -1.000000 0.000000 0.000000
vn -1.000000 0.000000 0.000000
vn -1.000000 0.000000 0.000000
vn -1.000000 0.000000 0.000000
vn -1.000000 0.000000 0.000000
vn 0.000000 0.000000 -1.000000
vn 0.000000 0.000000 -1.000000
vn 0.000000 0.000000 -1.000000
vn 0.000000 0.000000 -1.000000
vn 0.000000 0.000000 1.000000
vn 0.000000 0.000000 1.000000
vn 0.000000 0.000000 1.000000
vn 0.000000 0.000000 1.000000
vn 0.000000 0.000000 1.000000
vn 0.000000 0.000000 1.000000
vn 0.000000 0.000000 1.000000
vn 0.000000 0.000000 1.000000
vn 0.000000 0.000000 1.000000
vn 0.000000 0.000000 1.000000
vn 0.000000 0.000000 1.000000
vn 0.000000 0.000000 1.000000
vn 0.000000 0.000000 1.000000
vn 0.000000 0.000000 1.000000
vn 0.000000 0.000000 1.000000
vn 0.000000 0.000000 1.000000
vn 0.000000 0.000000 1.000000
vn 0.000000 0.000000 1.000000
vn 0.000000 0.000000 1.000000
vn 0.000000 0.000000 1.000000
vn 0.000000 0.000000 1.000000
vn 0.000000 0.000000 1.000000
vn 0.000000 0.000000 1.000000
vn 0.000000 0.000000 1.000000
vn 0.000000 0.000000 1.000000
vn 0.000000 0.000000 1.000000
vn 0.000000 0.000000 1.000000
vn 0.000000 0.000000 1.000000
vn -0.000000 -0.500000 0.866025
vn -0.000000 -0.500000 0.866025
vn -0.000000 -0.500000 0.866025
vn -0.000000 -0.500000 0.866025
vn 0.000000 0.866025 0.500000
vn 0.000000 0.866025 0.500000
vn 0.000000 0.866025 0.500000
vn 0.000000 0.866025 0.500000
vn 0.000000 0.500000 -0.866025
vn 0.000000 0.500000 -0.866025
vn 0.000000 0.500000 -0.866025
vn 0.000000 0.500000 -0.866025
vn -0.000000 -0.866025 -0.500000
vn -0.000000 -0.866025 -0.500000
vn -0.000000 -0.866025 -0.500000
vn -0.000000 -0.866025 -0.500000
vn -1.000000 0.000000 0.000000
vn -1.000000 0.000000 0.000000
vn -1.000000 0.000000 0.000000
vn -1.000000 0.000000 0.000000
vn 0.000000 0.500000 0.866025
vn 0.000000 0.500000 0.866025
vn 0.000000 0.500000 0.866025
vn 0.000000 0.500000 0.866025
vn -0.000000 -0.866025 0.500000
vn -0.000000 -0.866025 0.500000
vn -0.000000 -0.866025 0.500000
vn -0.000000 -0.866025 0.500000
vn -0.000000 -0.500000 -0.866025
vn -0.000000 -0.500000 -0.866025
vn -0.000000 -0.500000 -0.866025
vn -0.000000 -0.500000 -0.866025
vn 0.000000 0.866025 -0.500000
vn 0.000000 0.866025 -0.500000
vn 0.000000 0.866025 -0.500000
vn 0.000000 0.866025 -0.500000
vn 1.000000 -0.000000 0.000000
vn 1.000000 -0.000000 0.000000
vn 1.000000 -0.000000 0.000000
vn 1.000000 -0.000000 0.000000
vn -0.500000 0.000000 0.866025
vn -0.500000 0.000000 0.866025
vn -0.500000 0.000000 0.866025
vn -0.500000 0.000000 0.866025
vn 0.866025 0.000000 0.500000
vn 0.866025 0.000000 0.500000
vn 0.866025 0.000000 0.500000
vn 0.866025 0.000000 0.500000
vn 0.500000 0.000000 -0.866025
vn 0.500000 0.000000 -0.866025
vn 0.500000 0.000000 -0.866025
vn 0.500000 0.000000 -0.866025
vn -0.866025 0.000000 -0.500000
vn -0.866025 0.000000 -0.500000
vn -0.866025 0.000000 -0.500000
vn -0.866025 0.000000 -0.500000
vn 0.000000 1.000000 0.000000
vn 0.000000 1.000000 0.000000
vn 0.000000 1.000000 0.000000
vn 0.000000 1.000000 0.000000
vn 0.500000 -0.000000 0.866025
vn 0.500000 -0.000000 0.866025
vn 0.500000 -0.000000 0.866025
vn 0.500000 -0.000000 0.866025
vn -0.866025 0.000000 0.500000
vn -0.866025 0.000000 0.500000
vn -0.866025 0.000000 0.500000
vn -0.866025 0.000000 0.500000
vn -0.500000 0.000000 -0.866025
vn -0.500000 0.000000 -0.866025
vn -0.500000 0.000000 -0.866025
vn -0.500000 0.000000 -0.866025
vn 0.866025 -0.000000 -0.500000
vn 0.866025 -0.000000 -0.500000
vn 0.866025 -0.000000 -0.500000
vn 0.866025 -0.000000 -0.500000
vn -0.000000 -1.000000 0.000000
vn -0.000000 -1.000000 0.000000
vn -0.000000 -1.000000 0.000000
vn -0.000000 -1.000000 0.000000
usemtl 강철_-_새틴
f 2/1/1 51/2/2 1/3/3
f 1/3/3 51/2/2 49/4/4
f 1/5/3 49/6/4 24/7/5
f 24/7/5 49/6/4 95/8/6
f 24/7/5 95/8/6 23/9/7
f 23/9/7 95/8/6 93/10/8
f 23/9/7 93/10/8 22/11/9
f 22/11/9 93/10/8 91/12/10
f 22/11/9 91/12/10 21/13/11
f 21/13/11 91/12/10 89/14/12
f 21/13/11 89/14/12 20/15/13
f 20/15/13 89/14/12 87/16/14
f 20/15/13 87/16/14 19/17/15
f 19/17/15 87/16/14 85/18/16
f 19/17/15 85/18/16 18/19/17
f 18/19/17 85/18/16 83/20/18
f 18/19/17 83/20/18 17/21/19
f 17/21/19 83/20/18 81/22/20
f 17/21/19 81/22/20 16/23/21
f 16/23/21 81/22/20 79/24/22
f 16/23/21 79/24/22 15/25/23
f 15/25/23 79/24/22 77/26/24
f 15/25/23 77/26/24 14/27/25
f 14/27/25 77/26/24 75/28/26
f 14/27/25 75/28/26 13/29/27
f 13/29/27 75/28/26 73/30/28
f 13/29/27 73/30/28 12/31/29
f 12/31/29 73/30/28 71/32/30
f 12/31/29 71/32/30 11/33/31
f 11/33/31 71/32/30 69/34/32
f 11/33/31 69/34/32 10/35/33
f 10/35/33 69/34/32 67/36/34
f 10/35/33 67/36/34 9/37/35
f 9/37/35 67/36/34 65/38/36
f 9/37/35 65/38/36 8/39/37
f 8/39/37 65/38/36 63/40/38
f 8/39/37 63/40/38 7/41/39
f 7/41/39 63/40/38 61/42/40
f 7/41/39 61/42/40 6/43/41
f 6/43/41 61/42/40 59/44/42
f 6/43/41 59/44/42 5/45/43
f 5/45/43 59/44/42 57/46/44
f 5/45/43 57/46/44 4/47/45
f 4/47/45 57/46/44 55/48/46
f 4/47/45 55/48/46 3/49/47
f 3/49/47 55/48/46 53/50/48
f 3/49/47 53/50/48 2/1/1
f 2/1/1 53/50/48 51/2/2
f 26/51/49 96/52/50 25/53/51
f 25/53/51 96/52/50 50/54/52
f 25/55/51 50/56/52 48/57/53
f 48/57/53 50/56/52 52/58/54
f 48/57/53 52/58/54 47/59/55
f 47/59/55 52/58/54 54/60/56
f 47/59/55 54/60/56 46/61/57
f 46/61/57 54/60/56 56/62/58
f 46/61/57 56/62/58 45/63/59
f 45/63/59 56/62/58 58/64/60
f 45/63/59 58/64/60 44/65/61
f 44/65/61 58/64/60 60/66/62
f 44/65/61 60/66/62 43/67/63
f 43/67/63 60/66/62 62/68/64
f 43/67/63 62/68/64 42/69/65
f 42/69/65 62/68/64 64/70/66
f 42/69/65 64/70/66 41/71/67
f 41/71/67 64/70/66 66/72/68
f 41/71/67 66/72/68 40/73/69
f 40/73/69 66/72/68 68/74/70
f 40/73/69 68/74/70 39/75/71
f 39/75/71 68/74/70 70/76/72
f 39/75/71 70/76/72 38/77/73
f 38/77/73 70/76/72 72/78/74
f 38/77/73 72/78/74 37/79/75
f 37/79/75 72/78/74 74/80/76
f 37/79/75 74/80/76 36/81/77
f 36/81/77 74/80/76 76/82/78
f 36/81/77 76/82/78 35/83/79
f 35/83/79 76/82/78 78/84/80
f 35/83/79 78/84/80 34/85/81
f 34/85/81 78/84/80 80/86/82
f 34/85/81 80/86/82 33/87/83
f 33/87/83 80/86/82 82/88/84
f 33/87/83 82/88/84 32/89/85
f 32/89/85 82/88/84 84/90/86
f 32/89/85 84/90/86 31/91/87
f 31/91/87 84/90/86 86/92/88
f 31/91/87 86/92/88 30/93/89
f 30/93/89 86/92/88 88/94/90
f 30/93/89 88/94/90 29/95/91
f 29/95/91 88/94/90 90/96/92
f 29/95/91 90/96/92 28/97/93
f 28/97/93 90/96/92 92/98/94
f 28/97/93 92/98/94 27/99/95
f 27/99/95 92/98/94 94/100/96
f 27/99/95 94/100/96 26/51/49
f 26/51/49 94/100/96 96/52/50
f 49/6/4 50/54/52 95/8/6
f 95/8/6 50/54/52 96/52/50
f 95/8/6 96/52/50 93/10/8
f 93/10/8 96/52/50 94/100/96
f 93/10/8 94/100/96 91/12/10
f 91/12/10 94/100/96 92/98/94
f 91/12/10 92/98/94 89/14/12
f 89/14/12 92/98/94 90/96/92
f 89/14/12 90/96/92 87/16/14
f 87/16/14 90/96/92 88/94/90
f 87/16/14 88/94/90 85/18/16
f 85/18/16 88/94/90 86/92/88
f 85/18/16 86/92/88 83/20/18
f 83/20/18 86/92/88 84/90/86
f 83/20/18 84/90/86 81/22/20
f 81/22/20 84/90/86 82/88/84
f 81/22/20 82/88/84 79/24/22
f 79/24/22 82/88/84 80/86/82
f 79/24/22 80/86/82 77/26/24
f 77/26/24 80/86/82 78/84/80
f 77/26/24 78/84/80 75/28/26
f 75/28/26 78/84/80 76/82/78
f 75/28/26 76/82/78 73/30/28
f 73/30/28 76/82/78 74/80/76
f 73/30/28 74/80/76 71/32/30
f 71/32/30 74/80/76 72/78/74
f 71/32/30 72/78/74 69/34/32
f 69/34/32 72/78/74 70/76/72
f 69/34/32 70/76/72 67/36/34
f 67/36/34 70/76/72 68/74/70
f 67/36/34 68/74/70 65/38/36
f 65/38/36 68/74/70 66/72/68
f 65/38/36 66/72/68 63/40/38
f 63/40/38 66/72/68 64/70/66
f 63/40/38 64/70/66 61/42/40
f 61/42/40 64/70/66 62/68/64
f 61/42/40 62/68/64 59/44/42
f 59/44/42 62/68/64 60/66/62
f 59/44/42 60/66/62 57/46/44
f 57/46/44 60/66/62 58/64/60
f 57/46/44 58/64/60 55/48/46
f 55/48/46 58/64/60 56/62/58
f 55/48/46 56/62/58 53/50/48
f 53/50/48 56/62/58 54/60/56
f 53/50/48 54/60/56 51/2/2
f 51/2/2 54/60/56 52/58/54
f 51/2/2 52/58/54 49/4/4
f 49/4/4 52/58/54 50/56/52
f 24/101/97 14/102/98 1/103/99
f 1/103/99 14/102/98 13/104/100
f 1/103/99 13/104/100 2/105/101
f 2/105/101 13/104/100 12/106/102
f 2/105/101 12/106/102 3/107/103
f 3/107/103 12/106/102 11/108/104
f 3/107/103 11/108/104 4/109/105
f 4/109/105 11/108/104 10/110/106
f 4/109/105 10/110/106 5/111/107
f 5/111/107 10/110/106 9/112/108
f 5/111/107 9/112/108 6/113/109
f 6/113/109 9/112/108 8/114/110
f 6/113/109 8/114/110 7/115/111
f 14/102/98 24/101/97 15/116/112
f 15/116/112 24/101/97 23/117/113
f 15/116/112 23/117/113 16/118/114
f 16/118/114 23/117/113 22/119/115
f 16/118/114 22/119/115 17/120/116
f 17/120/116 22/119/115 21/121/117
f 17/120/116 21/121/117 18/122/118
f 18/122/118 21/121/117 20/123/119
f 18/122/118 20/123/119 19/124/120
f 98/125/121 104/126/122 97/127/123
f 97/127/123 104/126/122 101/128/124
f 97/127/123 101/128/124 100/129/125
f 100/129/125 101/128/124 102/130/126
f 100/129/125 102/130/126 99/131/127
f 99/131/127 102/130/126 103/132/128
f 99/131/127 103/132/128 98/125/121
f 98/125/121 103/132/128 104/126/122
f 106/133/129 112/134/130 105/135/131
f 105/135/131 112/134/130 109/136/132
f 105/135/131 109/136/132 108/137/133
f 108/137/133 109/136/132 110/138/134
f 108/137/133 110/138/134 107/139/135
f 107/139/135 110/138/134 111/140/136
f 107/139/135 111/140/136 106/133/129
f 106/133/129 111/140/136 112/134/130
f 107/141/137 116/142/138 108/143/139
f 108/143/139 116/142/138 113/144/140
f 108/143/139 113/144/140 97/145/141
f 97/145/141 113/144/140 114/146/142
f 97/145/141 114/146/142 98/147/143
f 98/147/143 114/146/142 115/148/144
f 98/147/143 115/148/144 107/141/137
f 107/141/137 115/148/144 116/142/138
f 99/149/145 120/150/146 100/151/147
f 100/151/147 120/150/146 117/152/148
f 100/151/147 117/152/148 105/153/149
f 105/153/149 117/152/148 118/154/150
f 105/153/149 118/154/150 106/155/151
f 106/155/151 118/154/150 119/156/152
f 106/155/151 119/156/152 99/149/145
f 99/149/145 119/156/152 120/150/146
f 105/157/153 108/158/154 100/159/155
f 100/159/155 108/158/154 97/160/156
f 48/161/157 98/162/158 25/163/159
f 25/163/159 98/162/158 107/164/160
f 25/163/159 107/164/160 26/165/161
f 26/165/161 107/164/160 27/166/162
f 27/166/162 107/164/160 28/167/163
f 28/167/163 107/164/160 29/168/164
f 29/168/164 107/164/160 30/169/165
f 30/169/165 107/164/160 31/170/166
f 31/170/166 107/164/160 106/171/167
f 31/170/166 106/171/167 32/172/168
f 32/172/168 106/171/167 33/173/169
f 33/173/169 106/171/167 34/174/170
f 34/174/170 106/171/167 35/175/171
f 35/175/171 106/171/167 36/176/172
f 36/176/172 106/171/167 37/177/173
f 37/177/173 106/171/167 99/178/174
f 37/177/173 99/178/174 38/179/175
f 38/179/175 99/178/174 39/180/176
f 39/180/176 99/178/174 40/181/177
f 40/181/177 99/178/174 41/182/178
f 41/182/178 99/178/174 42/183/179
f 42/183/179 99/178/174 43/184/180
f 43/184/180 99/178/174 98/162/158
f 43/184/180 98/162/158 44/185/181
f 44/185/181 98/162/158 45/186/182
f 45/186/182 98/162/158 46/187/183
f 46/187/183 98/162/158 47/188/184
f 47/188/184 98/162/158 48/161/157
f 120/189/185 119/190/186 122/191/187
f 122/191/187 119/190/186 121/192/188
f 119/193/189 118/194/190 121/195/191
f 121/195/191 118/194/190 123/196/192
f 118/197/193 117/198/194 123/199/195
f 123/199/195 117/198/194 124/200/196
f 117/201/197 120/202/198 124/203/199
f 124/203/199 120/202/198 122/204/200
f 124/205/201 122/206/202 123/207/203
f 123/207/203 122/206/202 121/208/204
f 116/209/205 115/210/206 126/211/207
f 126/211/207 115/210/206 125/212/208
f 115/213/209 114/214/210 125/215/211
f 125/215/211 114/214/210 127/216/212
f 114/217/213 113/218/214 127/219/215
f 127/219/215 113/218/214 128/220/216
f 113/221/217 116/222/218 128/223/219
f 128/223/219 116/222/218 126/224/220
f 128/225/221 126/226/222 127/227/223
f 127/227/223 126/226/222 125/228/224
f 112/229/225 111/230/226 130/231/227
f 130/231/227 111/230/226 129/232/228
f 111/233/229 110/234/230 129/235/231
f 129/235/231 110/234/230 131/236/232
f 110/237/233 109/238/234 131/239/235
f 131/239/235 109/238/234 132/240/236
f 109/241/237 112/242/238 132/243/239
f 132/243/239 112/242/238 130/244/240
f 132/245/241 130/246/242 131/247/243
f 131/247/243 130/246/242 129/248/244
f 104/249/245 103/250/246 134/251/247
f 134/251/247 103/250/246 133/252/248
f 103/253/249 102/254/250 133/255/251
f 133/255/251 102/254/250 135/256/252
f 102/257/253 101/258/254 135/259/255
f 135/259/255 101/258/254 136/260/256
f 101/261/257 104/262/258 136/263/259
f 136/263/259 104/262/258 134/264/260
f 136/265/261 134/266/262 135/267/263
f 135/267/263 134/266/262 133/268/264
# 136 vertices
# 268 texture params
# 264 normals
# 268 facets

# 1 groups