# WaveFront *.obj file (generated by Autodesk ATF)

v 0.488736 0.550000 -0.116777
v -0.502182 0.550000 0.017685
v -0.502182 3.250000 0.017685
v 0.488736 3.250000 -0.116777
v 0.502182 0.550000 -0.017685
v 0.502182 3.250000 -0.017685
v -0.488736 0.550000 0.116777
v -0.488736 3.250000 0.116777
v 0.488736 -0.550000 -0.116777
v 0.502182 -0.550000 -0.017685
v 0.502182 -3.250000 -0.017685
v 0.488736 -3.250000 -0.116777
v -0.502182 -0.550000 0.017685
v -0.502182 -3.250000 0.017685
v -0.488736 -0.550000 0.116777
v -0.488736 -3.250000 0.116777
v -0.550000 0.488175 -0.119100
v -0.550000 -0.502093 0.020073
v -3.250000 -0.502093 0.020073
v -3.250000 0.488175 -0.119100
v -0.550000 0.502093 -0.020073
v -3.250000 0.502093 -0.020073
v -0.550000 -0.488175 0.119100
v -3.250000 -0.488175 0.119100
v 0.550000 0.488175 -0.119100
v 0.550000 0.502093 -0.020073
v 3.250000 0.502093 -0.020073
v 3.250000 0.488175 -0.119100
v 0.550000 -0.502093 0.020073
v 3.250000 -0.502093 0.020073
v 0.550000 -0.488175 0.119100
v 3.250000 -0.488175 0.119100
v 0.300000 0.000000 5.350000
v 0.293444 -0.062374 5.350000
v 0.274064 -0.122021 5.350000
v 0.242705 -0.176336 5.350000
v 0.200739 -0.222943 5.350000
v 0.150000 -0.259808 5.350000
v 0.092705 -0.285317 5.350000
v 0.031359 -0.298357 5.350000
v -0.031359 -0.298357 5.350000
v -0.092705 -0.285317 5.350000
v -0.150000 -0.259808 5.350000
v -0.200739 -0.222943 5.350000
v -0.242705 -0.176336 5.350000
v -0.274064 -0.122021 5.350000
v -0.293444 -0.062374 5.350000
v -0.300000 0.000000 5.350000
v -0.293444 0.062374 5.350000
v -0.274064 0.122021 5.350000
v -0.242705 0.176336 5.350000
v -0.200739 0.222943 5.350000
v -0.150000 0.259808 5.350000
v -0.092705 0.285317 5.350000
v -0.031359 0.298357 5.350000
v 0.031359 0.298357 5.350000
v 0.092705 0.285317 5.350000
v 0.150000 0.259808 5.350000
v 0.200739 0.222943 5.350000
v 0.242705 0.176336 5.350000
v 0.274064 0.122021 5.350000
v 0.293444 0.062374 5.350000
v 0.300000 0.000000 0.350000
v 0.293444 0.062374 0.350000
v 0.274064 0.122021 0.350000
v 0.242705 0.176336 0.350000
v 0.200739 0.222943 0.350000
v 0.150000 0.259808 0.350000
v 0.092705 0.285317 0.350000
v 0.031359 0.298357 0.350000
v -0.031359 0.298357 0.350000
v -0.092705 0.285317 0.350000
v -0.150000 0.259808 0.350000
v -0.200739 0.222943 0.350000
v -0.242705 0.176336 0.350000
v -0.274064 0.122021 0.350000
v -0.293444 0.062374 0.350000
v -0.300000 0.000000 0.350000
v -0.293444 -0.062374 0.350000
v -0.274064 -0.122021 0.350000
v -0.242705 -0.176336 0.350000
v -0.200739 -0.222943 0.350000
v -0.150000 -0.259808 0.350000
v -0.092705 -0.285317 0.350000
v -0.031359 -0.298357 0.350000
v 0.031359 -0.298357 0.350000
v 0.092705 -0.285317 0.350000
v 0.150000 -0.259808 0.350000
v 0.200739 -0.222943 0.350000
v 0.242705 -0.176336 0.350000
v 0.274064 -0.122021 0.350000
v 0.293444 -0.062374 0.350000
v 0.300000 0.000000 4.100000
v 0.300000 0.000000 2.850000
v 0.300000 0.000000 1.600000
v 0.293444 -0.062374 4.100000
v 0.293444 -0.062374 2.850000
v 0.293444 -0.062374 1.600000
v 0.274064 -0.122021 4.100000
v 0.274064 -0.122021 2.850000
v 0.274064 -0.122021 1.600000
v 0.242705 -0.176336 4.100000
v 0.242705 -0.176336 2.850000
v 0.242705 -0.176336 1.600000
v 0.200739 -0.222943 4.100000
v 0.200739 -0.222943 2.850000
v 0.200739 -0.222943 1.600000
v 0.150000 -0.259808 4.100000
v 0.150000 -0.259808 2.850000
v 0.150000 -0.259808 1.600000
v 0.092705 -0.285317 4.100000
v 0.092705 -0.285317 2.850000
v 0.092705 -0.285317 1.600000
v 0.031359 -0.298357 4.100000
v 0.031359 -0.298357 2.850000
v 0.031359 -0.298357 1.600000
v -0.031359 -0.298357 4.100000
v -0.031359 -0.298357 2.850000
v -0.031359 -0.298357 1.600000
v -0.092705 -0.285317 4.100000
v -0.092705 -0.285317 2.850000
v -0.092705 -0.285317 1.600000
v -0.150000 -0.259808 4.100000
v -0.150000 -0.259808 2.850000
v -0.150000 -0.259808 1.600000
v -0.200739 -0.222943 4.100000
v -0.200739 -0.222943 2.850000
v -0.200739 -0.222943 1.600000
v -0.242705 -0.176336 4.100000
v -0.242705 -0.176336 2.850000
v -0.242705 -0.176336 1.600000
v -0.274064 -0.122021 4.100000
v -0.274064 -0.122021 2.850000
v -0.274064 -0.122021 1.600000
v -0.293444 -0.062374 4.100000
v -0.293444 -0.062374 2.850000
v -0.293444 -0.062374 1.600000
v -0.300000 0.000000 4.100000
v -0.300000 0.000000 2.850000
v -0.300000 0.000000 1.600000
v -0.293444 0.062374 4.100000
v -0.293444 0.062374 2.850000
v -0.293444 0.062374 1.600000
v -0.274064 0.122021 4.100000
v -0.274064 0.122021 2.850000
v -0.274064 0.122021 1.600000
v -0.242705 0.176336 4.100000
v -0.242705 0.176336 2.850000
v -0.242705 0.176336 1.600000
v -0.200739 0.222943 4.100000
v -0.200739 0.222943 2.850000
v -0.200739 0.222943 1.600000
v -0.150000 0.259808 4.100000
v -0.150000 0.259808 2.850000
v -0.150000 0.259808 1.600000
v -0.092705 0.285317 4.100000
v -0.092705 0.285317 2.850000
v -0.092705 0.285317 1.600000
v -0.031359 0.298357 4.100000
v -0.031359 0.298357 2.850000
v -0.031359 0.298357 1.600000
v 0.031359 0.298357 4.100000
v 0.031359 0.298357 2.850000
v 0.031359 0.298357 1.600000
v 0.092705 0.285317 4.100000
v 0.092705 0.285317 2.850000
v 0.092705 0.285317 1.600000
v 0.150000 0.259808 4.100000
v 0.150000 0.259808 2.850000
v 0.150000 0.259808 1.600000
v 0.200739 0.222943 4.100000
v 0.200739 0.222943 2.850000
v 0.200739 0.222943 1.600000
v 0.242705 0.176336 4.100000
v 0.242705 0.176336 2.850000
v 0.242705 0.176336 1.600000
v 0.274064 0.122021 4.100000
v 0.274064 0.122021 2.850000
v 0.274064 0.122021 1.600000
v 0.293444 0.062374 4.100000
v 0.293444 0.062374 2.850000
v 0.293444 0.062374 1.600000
v 0.550000 -0.550000 -0.350000
v 0.550000 -0.550000 0.350000
v -0.550000 -0.550000 0.350000
v -0.550000 -0.550000 -0.350000
v -0.550000 0.550000 -0.350000
v -0.550000 0.550000 0.350000
v 0.550000 0.550000 0.350000
v 0.550000 0.550000 -0.350000
vt 0.000000 0.000000 0.000000
vt 1.000000 0.000000 0.000000
vt 0.000000 2.700000 0.000000
vt 1.000000 2.700000 0.000000
vt 0.000000 0.000000 0.000000
vt 0.100000 0.000000 0.000000
vt 0.000000 2.700000 0.000000
vt 0.100000 2.700000 0.000000
vt 0.000000 0.000000 0.000000
vt 1.000000 0.000000 0.000000
vt 0.000000 2.700000 0.000000
vt 1.000000 2.700000 0.000000
vt 0.000000 0.000000 0.000000
vt 0.100000 0.000000 0.000000
vt 0.000000 2.700000 0.000000
vt 0.100000 2.700000 0.000000
vt 0.116777 -0.488736 0.000000
vt -0.017685 0.502182 0.000000
vt 0.017685 -0.502182 0.000000
vt -0.116777 0.488736 0.000000
vt 0.000000 0.000000 0.000000
vt 0.100000 0.000000 0.000000
vt 0.000000 2.700000 0.000000
vt 0.100000 2.700000 0.000000
vt -0.000000 0.000000 0.000000
vt 1.000000 0.000000 0.000000
vt -0.000000 2.700000 0.000000
vt 1.000000 2.700000 0.000000
vt -0.000000 0.000000 0.000000
vt 0.100000 -0.000000 0.000000
vt 0.000000 2.700000 0.000000
vt 0.100000 2.700000 0.000000
vt -0.000000 0.000000 0.000000
vt 1.000000 0.000000 0.000000
vt 0.000000 2.700000 0.000000
vt 1.000000 2.700000 0.000000
vt -0.116777 -0.488736 0.000000
vt -0.017685 -0.502182 0.000000
vt 0.017685 0.502182 0.000000
vt 0.116777 0.488736 0.000000
vt 0.000000 0.000000 0.000000
vt 1.000000 0.000000 0.000000
vt 0.000000 2.700000 0.000000
vt 1.000000 2.700000 0.000000
vt -0.000000 0.000000 0.000000
vt 0.100000 -0.000000 0.000000
vt -0.000000 2.700000 0.000000
vt 0.100000 2.700000 0.000000
vt 0.000000 0.000000 0.000000
vt 1.000000 0.000000 0.000000
vt 0.000000 2.700000 0.000000
vt 1.000000 2.700000 0.000000
vt -0.000000 0.000000 0.000000
vt 0.100000 0.000000 0.000000
vt -0.000000 2.700000 0.000000
vt 0.100000 2.700000 0.000000
vt 0.119100 -0.488175 0.000000
vt -0.020073 0.502093 0.000000
vt 0.020073 -0.502093 0.000000
vt -0.119100 0.488175 0.000000
vt 0.000000 0.000000 0.000000
vt 0.100000 0.000000 0.000000
vt 0.000000 2.700000 0.000000
vt 0.100000 2.700000 0.000000
vt 0.000000 0.000000 0.000000
vt 1.000000 0.000000 0.000000
vt 0.000000 2.700000 0.000000
vt 1.000000 2.700000 0.000000
vt -0.000000 0.000000 0.000000
vt 0.100000 0.000000 0.000000
vt -0.000000 2.700000 0.000000
vt 0.100000 2.700000 0.000000
vt 0.000000 0.000000 0.000000
vt 1.000000 0.000000 0.000000
vt 0.000000 2.700000 0.000000
vt 1.000000 2.700000 0.000000
vt -0.119100 -0.488175 0.000000
vt -0.020073 -0.502093 0.000000
vt 0.020073 0.502093 0.000000
vt 0.119100 0.488175 0.000000
vt -5.000000 0.879646 0.000000
vt -3.750000 0.879646 0.000000
vt -5.000000 0.942478 0.000000
vt -3.750000 0.942478 0.000000
vt -5.000000 -0.942478 0.000000
vt -3.750000 -0.942478 0.000000
vt -5.000000 -0.879646 0.000000
vt -3.750000 -0.879646 0.000000
vt -5.000000 -0.816814 0.000000
vt -3.750000 -0.816814 0.000000
vt -5.000000 -0.753982 0.000000
vt -3.750000 -0.753982 0.000000
vt -5.000000 -0.691150 0.000000
vt -3.750000 -0.691150 0.000000
vt -5.000000 -0.628319 0.000000
vt -3.750000 -0.628319 0.000000
vt -5.000000 -0.565487 0.000000
vt -3.750000 -0.565487 0.000000
vt -5.000000 -0.502655 0.000000
vt -3.750000 -0.502655 0.000000
vt -5.000000 -0.439823 0.000000
vt -3.750000 -0.439823 0.000000
vt -5.000000 -0.376991 0.000000
vt -3.750000 -0.376991 0.000000
vt -5.000000 -0.314159 0.000000
vt -3.750000 -0.314159 0.000000
vt -5.000000 -0.251327 0.000000
vt -3.750000 -0.251327 0.000000
vt -5.000000 -0.188496 0.000000
vt -3.750000 -0.188496 0.000000
vt -5.000000 -0.125664 0.000000
vt -3.750000 -0.125664 0.000000
vt -5.000000 -0.062832 0.000000
vt -3.750000 -0.062832 0.000000
vt -5.000000 0.000000 0.000000
vt -3.750000 0.000000 0.000000
vt -5.000000 0.062832 0.000000
vt -3.750000 0.062832 0.000000
vt -5.000000 0.125664 0.000000
vt -3.750000 0.125664 0.000000
vt -5.000000 0.188496 0.000000
vt -3.750000 0.188496 0.000000
vt -5.000000 0.251327 0.000000
vt -3.750000 0.251327 0.000000
vt -5.000000 0.314159 0.000000
vt -3.750000 0.314159 0.000000
vt -5.000000 0.376991 0.000000
vt -3.750000 0.376991 0.000000
vt -5.000000 0.439823 0.000000
vt -3.750000 0.439823 0.000000
vt -5.000000 0.502655 0.000000
vt -3.750000 0.502655 0.000000
vt -5.000000 0.565487 0.000000
vt -3.750000 0.565487 0.000000
vt -5.000000 0.628319 0.000000
vt -3.750000 0.628319 0.000000
vt -5.000000 0.691150 0.000000
vt -3.750000 0.691150 0.000000
vt -5.000000 0.753982 0.000000
vt -3.750000 0.753982 0.000000
vt -5.000000 0.816814 0.000000
vt -3.750000 0.816814 0.000000
vt -0.000000 -0.879646 0.000000
vt -1.250000 -0.879646 0.000000
vt -0.000000 -0.942478 0.000000
vt -1.250000 -0.942478 0.000000
vt -0.000000 0.942478 0.000000
vt -1.250000 0.942478 0.000000
vt -0.000000 0.879646 0.000000
vt -1.250000 0.879646 0.000000
vt -0.000000 0.816814 0.000000
vt -1.250000 0.816814 0.000000
vt -0.000000 0.753982 0.000000
vt -1.250000 0.753982 0.000000
vt -0.000000 0.691150 0.000000
vt -1.250000 0.691150 0.000000
vt -0.000000 0.628319 0.000000
vt -1.250000 0.628319 0.000000
vt -0.000000 0.565487 0.000000
vt -1.250000 0.565487 0.000000
vt -0.000000 0.502655 0.000000
vt -1.250000 0.502655 0.000000
vt -0.000000 0.439823 0.000000
vt -1.250000 0.439823 0.000000
vt -0.000000 0.376991 0.000000
vt -1.250000 0.376991 0.000000
vt -0.000000 0.314159 0.000000
vt -1.250000 0.314159 0.000000
vt -0.000000 0.251327 0.000000
vt -1.250000 0.251327 0.000000
vt -0.000000 0.188496 0.000000
vt -1.250000 0.188496 0.000000
vt -0.000000 0.125664 0.000000
vt -1.250000 0.125664 0.000000
vt -0.000000 0.062832 0.000000
vt -1.250000 0.062832 0.000000
vt -0.000000 0.000000 0.000000
vt -1.250000 0.000000 0.000000
vt -0.000000 -0.062832 0.000000
vt -1.250000 -0.062832 0.000000
vt -0.000000 -0.125664 0.000000
vt -1.250000 -0.125664 0.000000
vt -0.000000 -0.188496 0.000000
vt -1.250000 -0.188496 0.000000
vt -0.000000 -0.251327 0.000000
vt -1.250000 -0.251327 0.000000
vt -0.000000 -0.314159 0.000000
vt -1.250000 -0.314159 0.000000
vt -0.000000 -0.376991 0.000000
vt -1.250000 -0.376991 0.000000
vt -0.000000 -0.439823 0.000000
vt -1.250000 -0.439823 0.000000
vt -0.000000 -0.502655 0.000000
vt -1.250000 -0.502655 0.000000
vt -0.000000 -0.565487 0.000000
vt -1.250000 -0.565487 0.000000
vt -0.000000 -0.628319 0.000000
vt -1.250000 -0.628319 0.000000
vt -0.000000 -0.691150 0.000000
vt -1.250000 -0.691150 0.000000
vt -0.000000 -0.753982 0.000000
vt -1.250000 -0.753982 0.000000
vt -0.000000 -0.816814 0.000000
vt -1.250000 -0.816814 0.000000
vt -2.500000 -0.942478 0.000000
vt -2.500000 -0.879646 0.000000
vt -2.500000 -0.816814 0.000000
vt -2.500000 -0.753982 0.000000
vt -2.500000 -0.691150 0.000000
vt -2.500000 -0.628319 0.000000
vt -2.500000 -0.565487 0.000000
vt -2.500000 -0.502655 0.000000
vt -2.500000 -0.439823 0.000000
vt -2.500000 -0.376991 0.000000
vt -2.500000 -0.314159 0.000000
vt -2.500000 -0.251327 0.000000
vt -2.500000 -0.188496 0.000000
vt -2.500000 -0.125664 0.000000
vt -2.500000 -0.062832 0.000000
vt -2.500000 0.000000 0.000000
vt -2.500000 0.062832 0.000000
vt -2.500000 0.125664 0.000000
vt -2.500000 0.188496 0.000000
vt -2.500000 0.251327 0.000000
vt -2.500000 0.314159 0.000000
vt -2.500000 0.376991 0.000000
vt -2.500000 0.439823 0.000000
vt -2.500000 0.502655 0.000000
vt -2.500000 0.565487 0.000000
vt -2.500000 0.628319 0.000000
vt -2.500000 0.691150 0.000000
vt -2.500000 0.753982 0.000000
vt -2.500000 0.816814 0.000000
vt -2.500000 0.879646 0.000000
vt -2.500000 0.942478 0.000000
vt -0.293444 -0.062374 0.000000
vt 0.293444 -0.062374 0.000000
vt -0.300000 -0.000000 0.000000
vt 0.300000 0.000000 0.000000
vt -0.293444 0.062374 0.000000
vt 0.293444 0.062374 0.000000
vt -0.274064 0.122021 0.000000
vt 0.274064 0.122021 0.000000
vt -0.242705 0.176336 0.000000
vt 0.242705 0.176336 0.000000
vt -0.200739 0.222943 0.000000
vt 0.200739 0.222943 0.000000
vt -0.150000 0.259808 0.000000
vt 0.150000 0.259808 0.000000
vt -0.092705 0.285317 0.000000
vt 0.092705 0.285317 0.000000
vt -0.031359 0.298357 0.000000
vt 0.031359 0.298357 0.000000
vt 0.274064 -0.122021 0.000000
vt -0.274064 -0.122021 0.000000
vt 0.242705 -0.176336 0.000000
vt -0.242705 -0.176336 0.000000
vt 0.200739 -0.222943 0.000000
vt -0.200739 -0.222943 0.000000
vt 0.150000 -0.259808 0.000000
vt -0.150000 -0.259808 0.000000
vt 0.092705 -0.285317 0.000000
vt -0.092705 -0.285317 0.000000
vt 0.031359 -0.298357 0.000000
vt -0.031359 -0.298357 0.000000
vt 1.038736 -0.116777 0.000000
vt 1.100000 -0.350000 0.000000
vt 1.052182 -0.017685 0.000000
vt 1.100000 0.350000 0.000000
vt 0.061264 0.116777 0.000000
vt 0.000000 0.350000 0.000000
vt 0.047818 0.017685 0.000000
vt 0.000000 -0.350000 0.000000
vt 0.061264 -0.116777 0.000000
vt 1.100000 -0.350000 0.000000
vt 1.052182 0.017685 0.000000
vt 1.100000 0.350000 0.000000
vt 1.038736 0.116777 0.000000
vt 0.000000 0.350000 0.000000
vt 0.047818 -0.017685 0.000000
vt 0.000000 -0.350000 0.000000
vt 1.038175 -0.119100 0.000000
vt 1.100000 -0.350000 0.000000
vt 1.052093 -0.020073 0.000000
vt 1.100000 0.350000 0.000000
vt 0.061825 0.119100 0.000000
vt 0.000000 0.350000 0.000000
vt 0.047907 0.020073 0.000000
vt 0.000000 -0.350000 0.000000
vt 0.061825 -0.119100 0.000000
vt 1.100000 -0.350000 0.000000
vt 1.052093 0.020073 0.000000
vt 1.100000 0.350000 0.000000
vt 1.038175 0.119100 0.000000
vt 0.000000 0.350000 0.000000
vt 0.047907 -0.020073 0.000000
vt 0.000000 -0.350000 0.000000
vt 0.550000 0.550000 0.000000
vt -0.550000 0.550000 0.000000
vt 0.550000 -0.550000 0.000000
vt -0.550000 -0.550000 0.000000
vt 0.293444 -0.062374 0.000000
vt 0.550000 -0.550000 0.000000
vt 0.300000 0.000000 0.000000
vt 0.550000 0.550000 0.000000
vt 0.293444 0.062374 0.000000
vt 0.274064 0.122021 0.000000
vt 0.242705 0.176336 0.000000
vt 0.200739 0.222943 0.000000
vt 0.150000 0.259808 0.000000
vt 0.092705 0.285317 0.000000
vt 0.031359 0.298357 0.000000
vt -0.550000 0.550000 0.000000
vt -0.031359 0.298357 0.000000
vt -0.092705 0.285317 0.000000
vt -0.150000 0.259808 0.000000
vt -0.200739 0.222943 0.000000
vt -0.242705 0.176336 0.000000
vt -0.274064 0.122021 0.000000
vt -0.293444 0.062374 0.000000
vt -0.300000 0.000000 0.000000
vt -0.550000 -0.550000 0.000000
vt -0.293444 -0.062374 0.000000
vt -0.274064 -0.122021 0.000000
vt -0.242705 -0.176336 0.000000
vt -0.200739 -0.222943 0.000000
vt -0.150000 -0.259808 0.000000
vt -0.092705 -0.285317 0.000000
vt -0.031359 -0.298357 0.000000
vt 0.031359 -0.298357 0.000000
vt 0.092705 -0.285317 0.000000
vt 0.150000 -0.259808 0.000000
vt 0.200739 -0.222943 0.000000
vt 0.242705 -0.176336 0.000000
vt 0.274064 -0.122021 0.000000
vn -0.134461 0.000000 -0.990919
vn -0.134461 0.000000 -0.990919
vn -0.134461 0.000000 -0.990919
vn -0.134461 0.000000 -0.990919
vn 0.990919 0.000000 -0.134461
vn 0.990919 0.000000 -0.134461
vn 0.990919 0.000000 -0.134461
vn 0.990919 0.000000 -0.134461
vn 0.134461 -0.000000 0.990919
vn 0.134461 -0.000000 0.990919
vn 0.134461 -0.000000 0.990919
vn 0.134461 -0.000000 0.990919
vn -0.990919 0.000000 0.134461
vn -0.990919 0.000000 0.134461
vn -0.990919 0.000000 0.134461
vn -0.990919 0.000000 0.134461
vn 0.000000 1.000000 0.000000
vn 0.000000 1.000000 0.000000
vn 0.000000 1.000000 0.000000
vn 0.000000 1.000000 0.000000
vn 0.990919 0.000000 -0.134461
vn 0.990919 0.000000 -0.134461
vn 0.990919 0.000000 -0.134461
vn 0.990919 0.000000 -0.134461
vn -0.134461 -0.000000 -0.990919
vn -0.134461 -0.000000 -0.990919
vn -0.134461 -0.000000 -0.990919
vn -0.134461 -0.000000 -0.990919
vn -0.990919 0.000000 0.134461
vn -0.990919 0.000000 0.134461
vn -0.990919 0.000000 0.134461
vn -0.990919 0.000000 0.134461
vn 0.134461 0.000000 0.990919
vn 0.134461 0.000000 0.990919
vn 0.134461 0.000000 0.990919
vn 0.134461 0.000000 0.990919
vn 0.000000 -1.000000 0.000000
vn 0.000000 -1.000000 0.000000
vn 0.000000 -1.000000 0.000000
vn 0.000000 -1.000000 0.000000
vn -0.000000 -0.139173 -0.990268
vn -0.000000 -0.139173 -0.990268
vn -0.000000 -0.139173 -0.990268
vn -0.000000 -0.139173 -0.990268
vn 0.000000 0.990268 -0.139173
vn 0.000000 0.990268 -0.139173
vn 0.000000 0.990268 -0.139173
vn 0.000000 0.990268 -0.139173
vn 0.000000 0.139173 0.990268
vn 0.000000 0.139173 0.990268
vn 0.000000 0.139173 0.990268
vn 0.000000 0.139173 0.990268
vn 0.000000 -0.990268 0.139173
vn 0.000000 -0.990268 0.139173
vn 0.000000 -0.990268 0.139173
vn 0.000000 -0.990268 0.139173
vn -1.000000 0.000000 0.000000
vn -1.000000 0.000000 0.000000
vn -1.000000 0.000000 0.000000
vn -1.000000 0.000000 0.000000
vn 0.000000 0.990268 -0.139173
vn 0.000000 0.990268 -0.139173
vn 0.000000 0.990268 -0.139173
vn 0.000000 0.990268 -0.139173
vn 0.000000 -0.139173 -0.990268
vn 0.000000 -0.139173 -0.990268
vn 0.000000 -0.139173 -0.990268
vn 0.000000 -0.139173 -0.990268
vn 0.000000 -0.990268 0.139173
vn 0.000000 -0.990268 0.139173
vn 0.000000 -0.990268 0.139173
vn 0.000000 -0.990268 0.139173
vn -0.000000 0.139173 0.990268
vn -0.000000 0.139173 0.990268
vn -0.000000 0.139173 0.990268
vn -0.000000 0.139173 0.990268
vn 1.000000 0.000000 0.000000
vn 1.000000 0.000000 0.000000
vn 1.000000 0.000000 0.000000
vn 1.000000 0.000000 0.000000
vn 0.978148 -0.207912 -0.000000
vn 0.978148 -0.207912 -0.000000
vn 1.000000 -0.000000 -0.000000
vn 1.000000 -0.000000 -0.000000
vn 0.978148 0.207912 -0.000000
vn 0.978148 0.207912 -0.000000
vn 0.913545 0.406737 -0.000000
vn 0.913545 0.406737 -0.000000
vn 0.809017 0.587785 -0.000000
vn 0.809017 0.587785 -0.000000
vn 0.669131 0.743145 -0.000000
vn 0.669131 0.743145 -0.000000
vn 0.500000 0.866025 -0.000000
vn 0.500000 0.866025 -0.000000
vn 0.309017 0.951057 -0.000000
vn 0.309017 0.951057 -0.000000
vn 0.104528 0.994522 -0.000000
vn 0.104528 0.994522 -0.000000
vn -0.104528 0.994522 -0.000000
vn -0.104528 0.994522 -0.000000
vn -0.309017 0.951057 -0.000000
vn -0.309017 0.951057 -0.000000
vn -0.500000 0.866025 -0.000000
vn -0.500000 0.866025 -0.000000
vn -0.669131 0.743145 -0.000000
vn -0.669131 0.743145 -0.000000
vn -0.809017 0.587785 -0.000000
vn -0.809017 0.587785 -0.000000
vn -0.913545 0.406737 -0.000000
vn -0.913545 0.406737 -0.000000
vn -0.978148 0.207912 -0.000000
vn -0.978148 0.207912 -0.000000
vn -1.000000 -0.000000 0.000000
vn -1.000000 -0.000000 0.000000
vn -0.978148 -0.207912 0.000000
vn -0.978148 -0.207912 0.000000
vn -0.913545 -0.406737 0.000000
vn -0.913545 -0.406737 0.000000
vn -0.809017 -0.587785 0.000000
vn -0.809017 -0.587785 0.000000
vn -0.669131 -0.743145 0.000000
vn -0.669131 -0.743145 0.000000
vn -0.500000 -0.866025 0.000000
vn -0.500000 -0.866025 0.000000
vn -0.309017 -0.951057 0.000000
vn -0.309017 -0.951057 0.000000
vn -0.104528 -0.994522 0.000000
vn -0.104528 -0.994522 0.000000
vn 0.104528 -0.994522 -0.000000
vn 0.104528 -0.994522 -0.000000
vn 0.309017 -0.951057 -0.000000
vn 0.309017 -0.951057 -0.000000
vn 0.500000 -0.866025 -0.000000
vn 0.500000 -0.866025 -0.000000
vn 0.669131 -0.743145 -0.000000
vn 0.669131 -0.743145 -0.000000
vn 0.809017 -0.587785 -0.000000
vn 0.809017 -0.587785 -0.000000
vn 0.913545 -0.406737 -0.000000
vn 0.913545 -0.406737 -0.000000
vn 0.978148 0.207912 -0.000000
vn 0.978148 0.207912 -0.000000
vn 1.000000 0.000000 -0.000000
vn 1.000000 0.000000 -0.000000
vn 0.978148 -0.207912 -0.000000
vn 0.978148 -0.207912 -0.000000
vn 0.913545 -0.406737 -0.000000
vn 0.913545 -0.406737 -0.000000
vn 0.809017 -0.587785 -0.000000
vn 0.809017 -0.587785 -0.000000
vn 0.669131 -0.743145 -0.000000
vn 0.669131 -0.743145 -0.000000
vn 0.500000 -0.866025 -0.000000
vn 0.500000 -0.866025 -0.000000
vn 0.309017 -0.951057 -0.000000
vn 0.309017 -0.951057 -0.000000
vn 0.104528 -0.994522 -0.000000
vn 0.104528 -0.994522 -0.000000
vn -0.104528 -0.994522 0.000000
vn -0.104528 -0.994522 0.000000
vn -0.309017 -0.951057 0.000000
vn -0.309017 -0.951057 0.000000
vn -0.500000 -0.866025 0.000000
vn -0.500000 -0.866025 0.000000
vn -0.669131 -0.743145 0.000000
vn -0.669131 -0.743145 0.000000
vn -0.809017 -0.587785 0.000000
vn -0.809017 -0.587785 0.000000
vn -0.913545 -0.406737 0.000000
vn -0.913545 -0.406737 0.000000
vn -0.978148 -0.207912 0.000000
vn -0.978148 -0.207912 0.000000
vn -1.000000 -0.000000 0.000000
vn -1.000000 -0.000000 0.000000
vn -0.978148 0.207912 -0.000000
vn -0.978148 0.207912 -0.000000
vn -0.913545 0.406737 -0.000000
vn -0.913545 0.406737 -0.000000
vn -0.809017 0.587785 -0.000000
vn -0.809017 0.587785 -0.000000
vn -0.669131 0.743145 -0.000000
vn -0.669131 0.743145 -0.000000
vn -0.500000 0.866025 -0.000000
vn -0.500000 0.866025 -0.000000
vn -0.309017 0.951057 -0.000000
vn -0.309017 0.951057 -0.000000
vn -0.104528 0.994522 -0.000000
vn -0.104528 0.994522 -0.000000
vn 0.104528 0.994522 -0.000000
vn 0.104528 0.994522 -0.000000
vn 0.309017 0.951057 -0.000000
vn 0.309017 0.951057 -0.000000
vn 0.500000 0.866025 -0.000000
vn 0.500000 0.866025 -0.000000
vn 0.669131 0.743145 -0.000000
vn 0.669131 0.743145 -0.000000
vn 0.809017 0.587785 -0.000000
vn 0.809017 0.587785 -0.000000
vn 0.913545 0.406737 -0.000000
vn 0.913545 0.406737 -0.000000
vn 1.000000 0.000000 -0.000000
vn 0.978148 0.207912 -0.000000
vn 0.913545 0.406737 -0.000000
vn 0.809017 0.587785 -0.000000
vn 0.669131 0.743145 -0.000000
vn 0.500000 0.866025 -0.000000
vn 0.309017 0.951057 -0.000000
vn 0.104528 0.994522 -0.000000
vn -0.104528 0.994522 -0.000000
vn -0.309017 0.951057 -0.000000
vn -0.500000 0.866025 -0.000000
vn -0.669131 0.743145 -0.000000
vn -0.809017 0.587785 -0.000000
vn -0.913545 0.406737 -0.000000
vn -0.978148 0.207912 -0.000000
vn -1.000000 -0.000000 0.000000
vn -0.978148 -0.207912 0.000000
vn -0.913545 -0.406737 0.000000
vn -0.809017 -0.587785 0.000000
vn -0.669131 -0.743145 0.000000
vn -0.500000 -0.866025 0.000000
vn -0.309017 -0.951057 0.000000
vn -0.104528 -0.994522 0.000000
vn 0.104528 -0.994522 -0.000000
vn 0.309017 -0.951057 -0.000000
vn 0.500000 -0.866025 -0.000000
vn 0.669131 -0.743145 -0.000000
vn 0.809017 -0.587785 -0.000000
vn 0.913545 -0.406737 -0.000000
vn 0.978148 -0.207912 -0.000000
vn 0.000000 0.000000 1.000000
vn 0.000000 0.000000 1.000000
vn 0.000000 0.000000 1.000000
vn 0.000000 0.000000 1.000000
vn 0.000000 0.000000 1.000000
vn 0.000000 0.000000 1.000000
vn 0.000000 0.000000 1.000000
vn 0.000000 0.000000 1.000000
vn 0.000000 0.000000 1.000000
vn 0.000000 0.000000 1.000000
vn 0.000000 0.000000 1.000000
vn 0.000000 0.000000 1.000000
vn 0.000000 0.000000 1.000000
vn 0.000000 0.000000 1.000000
vn 0.000000 0.000000 1.000000
vn 0.000000 0.000000 1.000000
vn 0.000000 0.000000 1.000000
vn 0.000000 0.000000 1.000000
vn 0.000000 0.000000 1.000000
vn 0.000000 0.000000 1.000000
vn 0.000000 0.000000 1.000000
vn 0.000000 0.000000 1.000000
vn 0.000000 0.000000 1.000000
vn 0.000000 0.000000 1.000000
vn 0.000000 0.000000 1.000000
vn 0.000000 0.000000 1.000000
vn 0.000000 0.000000 1.000000
vn 0.000000 0.000000 1.000000
vn 0.000000 0.000000 1.000000
vn 0.000000 0.000000 1.000000
vn 0.000000 -1.000000 0.000000
vn 0.000000 -1.000000 0.000000
vn 0.000000 -1.000000 0.000000
vn 0.000000 -1.000000 0.000000
vn 0.000000 -1.000000 0.000000
vn 0.000000 -1.000000 0.000000
vn 0.000000 -1.000000 0.000000
vn 0.000000 -1.000000 0.000000
vn 0.000000 1.000000 -0.000000
vn 0.000000 1.000000 -0.000000
vn 0.000000 1.000000 -0.000000
vn 0.000000 1.000000 -0.000000
vn 0.000000 1.000000 -0.000000
vn 0.000000 1.000000 -0.000000
vn 0.000000 1.000000 -0.000000
vn 0.000000 1.000000 -0.000000
vn 1.000000 0.000000 0.000000
vn 1.000000 0.000000 0.000000
vn 1.000000 0.000000 0.000000
vn 1.000000 0.000000 0.000000
vn 1.000000 0.000000 0.000000
vn 1.000000 0.000000 0.000000
vn 1.000000 0.000000 0.000000
vn 1.000000 0.000000 0.000000
vn -1.000000 0.000000 0.000000
vn -1.000000 0.000000 0.000000
vn -1.000000 0.000000 0.000000
vn -1.000000 0.000000 0.000000
vn -1.000000 0.000000 0.000000
vn -1.000000 0.000000 0.000000
vn -1.000000 0.000000 0.000000
vn -1.000000 0.000000 0.000000
vn 0.000000 0.000000 -1.000000
vn 0.000000 0.000000 -1.000000
vn 0.000000 0.000000 -1.000000
vn 0.000000 0.000000 -1.000000
vn 0.000000 0.000000 1.000000
vn 0.000000 0.000000 1.000000
vn 0.000000 0.000000 1.000000
vn 0.000000 0.000000 1.000000
vn 0.000000 0.000000 1.000000
vn 0.000000 0.000000 1.000000
vn 0.000000 0.000000 1.000000
vn 0.000000 0.000000 1.000000
vn 0.000000 0.000000 1.000000
vn 0.000000 0.000000 1.000000
vn 0.000000 0.000000 1.000000
vn 0.000000 0.000000 1.000000
vn 0.000000 0.000000 1.000000
vn 0.000000 0.000000 1.000000
vn 0.000000 0.000000 1.000000
vn 0.000000 0.000000 1.000000
vn 0.000000 0.000000 1.000000
vn 0.000000 0.000000 1.000000
vn 0.000000 0.000000 1.000000
vn 0.000000 0.000000 1.000000
vn 0.000000 0.000000 1.000000
vn 0.000000 0.000000 1.000000
vn 0.000000 0.000000 1.000000
vn 0.000000 0.000000 1.000000
vn 0.000000 0.000000 1.000000
vn 0.000000 0.000000 1.000000
vn 0.000000 0.000000 1.000000
vn 0.000000 0.000000 1.000000
vn 0.000000 0.000000 1.000000
vn 0.000000 0.000000 1.000000
vn 0.000000 0.000000 1.000000
vn 0.000000 0.000000 1.000000
vn 0.000000 0.000000 1.000000
vn 0.000000 0.000000 1.000000
usemtl 강철_-_새틴
f 1/1/1 2/2/2 4/3/3
f 4/3/3 2/2/2 3/4/4
f 5/5/5 1/6/6 6/7/7
f 6/7/7 1/6/6 4/8/8
f 7/9/9 5/10/10 8/11/11
f 8/11/11 5/10/10 6/12/12
f 2/13/13 7/14/14 3/15/15
f 3/15/15 7/14/14 8/16/16
f 8/17/17 6/18/18 3/19/19
f 3/19/19 6/18/18 4/20/20
f 9/21/21 10/22/22 12/23/23
f 12/23/23 10/22/22 11/24/24
f 13/25/25 9/26/26 14/27/27
f 14/27/27 9/26/26 12/28/28
f 15/29/29 13/30/30 16/31/31
f 16/31/31 13/30/30 14/32/32
f 10/33/33 15/34/34 11/35/35
f 11/35/35 15/34/34 16/36/36
f 16/37/37 14/38/38 11/39/39
f 11/39/39 14/38/38 12/40/40
f 17/41/41 18/42/42 20/43/43
f 20/43/43 18/42/42 19/44/44
f 21/45/45 17/46/46 22/47/47
f 22/47/47 17/46/46 20/48/48
f 23/49/49 21/50/50 24/51/51
f 24/51/51 21/50/50 22/52/52
f 18/53/53 23/54/54 19/55/55
f 19/55/55 23/54/54 24/56/56
f 24/57/57 22/58/58 19/59/59
f 19/59/59 22/58/58 20/60/60
f 25/61/61 26/62/62 28/63/63
f 28/63/63 26/62/62 27/64/64
f 29/65/65 25/66/66 30/67/67
f 30/67/67 25/66/66 28/68/68
f 31/69/69 29/70/70 32/71/71
f 32/71/71 29/70/70 30/72/72
f 26/73/73 31/74/74 27/75/75
f 27/75/75 31/74/74 32/76/76
f 32/77/77 30/78/78 27/79/79
f 27/79/79 30/78/78 28/80/80
f 34/81/81 96/82/82 33/83/83
f 33/83/83 96/82/82 93/84/84
f 33/85/83 93/86/84 62/87/85
f 62/87/85 93/86/84 180/88/86
f 62/87/85 180/88/86 61/89/87
f 61/89/87 180/88/86 177/90/88
f 61/89/87 177/90/88 60/91/89
f 60/91/89 177/90/88 174/92/90
f 60/91/89 174/92/90 59/93/91
f 59/93/91 174/92/90 171/94/92
f 59/93/91 171/94/92 58/95/93
f 58/95/93 171/94/92 168/96/94
f 58/95/93 168/96/94 57/97/95
f 57/97/95 168/96/94 165/98/96
f 57/97/95 165/98/96 56/99/97
f 56/99/97 165/98/96 162/100/98
f 56/99/97 162/100/98 55/101/99
f 55/101/99 162/100/98 159/102/100
f 55/101/99 159/102/100 54/103/101
f 54/103/101 159/102/100 156/104/102
f 54/103/101 156/104/102 53/105/103
f 53/105/103 156/104/102 153/106/104
f 53/105/103 153/106/104 52/107/105
f 52/107/105 153/106/104 150/108/106
f 52/107/105 150/108/106 51/109/107
f 51/109/107 150/108/106 147/110/108
f 51/109/107 147/110/108 50/111/109
f 50/111/109 147/110/108 144/112/110
f 50/111/109 144/112/110 49/113/111
f 49/113/111 144/112/110 141/114/112
f 49/113/111 141/114/112 48/115/113
f 48/115/113 141/114/112 138/116/114
f 48/115/113 138/116/114 47/117/115
f 47/117/115 138/116/114 135/118/116
f 47/117/115 135/118/116 46/119/117
f 46/119/117 135/118/116 132/120/118
f 46/119/117 132/120/118 45/121/119
f 45/121/119 132/120/118 129/122/120
f 45/121/119 129/122/120 44/123/121
f 44/123/121 129/122/120 126/124/122
f 44/123/121 126/124/122 43/125/123
f 43/125/123 126/124/122 123/126/124
f 43/125/123 123/126/124 42/127/125
f 42/127/125 123/126/124 120/128/126
f 42/127/125 120/128/126 41/129/127
f 41/129/127 120/128/126 117/130/128
f 41/129/127 117/130/128 40/131/129
f 40/131/129 117/130/128 114/132/130
f 40/131/129 114/132/130 39/133/131
f 39/133/131 114/132/130 111/134/132
f 39/133/131 111/134/132 38/135/133
f 38/135/133 111/134/132 108/136/134
f 38/135/133 108/136/134 37/137/135
f 37/137/135 108/136/134 105/138/136
f 37/137/135 105/138/136 36/139/137
f 36/139/137 105/138/136 102/140/138
f 36/139/137 102/140/138 35/141/139
f 35/141/139 102/140/138 99/142/140
f 35/141/139 99/142/140 34/81/81
f 34/81/81 99/142/140 96/82/82
f 64/143/141 182/144/142 63/145/143
f 63/145/143 182/144/142 95/146/144
f 63/147/143 95/148/144 92/149/145
f 92/149/145 95/148/144 98/150/146
f 92/149/145 98/150/146 91/151/147
f 91/151/147 98/150/146 101/152/148
f 91/151/147 101/152/148 90/153/149
f 90/153/149 101/152/148 104/154/150
f 90/153/149 104/154/150 89/155/151
f 89/155/151 104/154/150 107/156/152
f 89/155/151 107/156/152 88/157/153
f 88/157/153 107/156/152 110/158/154
f 88/157/153 110/158/154 87/159/155
f 87/159/155 110/158/154 113/160/156
f 87/159/155 113/160/156 86/161/157
f 86/161/157 113/160/156 116/162/158
f 86/161/157 116/162/158 85/163/159
f 85/163/159 116/162/158 119/164/160
f 85/163/159 119/164/160 84/165/161
f 84/165/161 119/164/160 122/166/162
f 84/165/161 122/166/162 83/167/163
f 83/167/163 122/166/162 125/168/164
f 83/167/163 125/168/164 82/169/165
f 82/169/165 125/168/164 128/170/166
f 82/169/165 128/170/166 81/171/167
f 81/171/167 128/170/166 131/172/168
f 81/171/167 131/172/168 80/173/169
f 80/173/169 131/172/168 134/174/170
f 80/173/169 134/174/170 79/175/171
f 79/175/171 134/174/170 137/176/172
f 79/175/171 137/176/172 78/177/173
f 78/177/173 137/176/172 140/178/174
f 78/177/173 140/178/174 77/179/175
f 77/179/175 140/178/174 143/180/176
f 77/179/175 143/180/176 76/181/177
f 76/181/177 143/180/176 146/182/178
f 76/181/177 146/182/178 75/183/179
f 75/183/179 146/182/178 149/184/180
f 75/183/179 149/184/180 74/185/181
f 74/185/181 149/184/180 152/186/182
f 74/185/181 152/186/182 73/187/183
f 73/187/183 152/186/182 155/188/184
f 73/187/183 155/188/184 72/189/185
f 72/189/185 155/188/184 158/190/186
f 72/189/185 158/190/186 71/191/187
f 71/191/187 158/190/186 161/192/188
f 71/191/187 161/192/188 70/193/189
f 70/193/189 161/192/188 164/194/190
f 70/193/189 164/194/190 69/195/191
f 69/195/191 164/194/190 167/196/192
f 69/195/191 167/196/192 68/197/193
f 68/197/193 167/196/192 170/198/194
f 68/197/193 170/198/194 67/199/195
f 67/199/195 170/198/194 173/200/196
f 67/199/195 173/200/196 66/201/197
f 66/201/197 173/200/196 176/202/198
f 66/201/197 176/202/198 65/203/199
f 65/203/199 176/202/198 179/204/200
f 65/203/199 179/204/200 64/143/141
f 64/143/141 179/204/200 182/144/142
f 93/86/84 94/205/201 180/88/86
f 180/88/86 94/205/201 181/206/202
f 180/88/86 181/206/202 177/90/88
f 177/90/88 181/206/202 178/207/203
f 177/90/88 178/207/203 174/92/90
f 174/92/90 178/207/203 175/208/204
f 174/92/90 175/208/204 171/94/92
f 171/94/92 175/208/204 172/209/205
f 171/94/92 172/209/205 168/96/94
f 168/96/94 172/209/205 169/210/206
f 168/96/94 169/210/206 165/98/96
f 165/98/96 169/210/206 166/211/207
f 165/98/96 166/211/207 162/100/98
f 162/100/98 166/211/207 163/212/208
f 162/100/98 163/212/208 159/102/100
f 159/102/100 163/212/208 160/213/209
f 159/102/100 160/213/209 156/104/102
f 156/104/102 160/213/209 157/214/210
f 156/104/102 157/214/210 153/106/104
f 153/106/104 157/214/210 154/215/211
f 153/106/104 154/215/211 150/108/106
f 150/108/106 154/215/211 151/216/212
f 150/108/106 151/216/212 147/110/108
f 147/110/108 151/216/212 148/217/213
f 147/110/108 148/217/213 144/112/110
f 144/112/110 148/217/213 145/218/214
f 144/112/110 145/218/214 141/114/112
f 141/114/112 145/218/214 142/219/215
f 141/114/112 142/219/215 138/116/114
f 138/116/114 142/219/215 139/220/216
f 138/116/114 139/220/216 135/118/116
f 135/118/116 139/220/216 136/221/217
f 135/118/116 136/221/217 132/120/118
f 132/120/118 136/221/217 133/222/218
f 132/120/118 133/222/218 129/122/120
f 129/122/120 133/222/218 130/223/219
f 129/122/120 130/223/219 126/124/122
f 126/124/122 130/223/219 127/224/220
f 126/124/122 127/224/220 123/126/124
f 123/126/124 127/224/220 124/225/221
f 123/126/124 124/225/221 120/128/126
f 120/128/126 124/225/221 121/226/222
f 120/128/126 121/226/222 117/130/128
f 117/130/128 121/226/222 118/227/223
f 117/130/128 118/227/223 114/132/130
f 114/132/130 118/227/223 115/228/224
f 114/132/130 115/228/224 111/134/132
f 111/134/132 115/228/224 112/229/225
f 111/134/132 112/229/225 108/136/134
f 108/136/134 112/229/225 109/230/226
f 108/136/134 109/230/226 105/138/136
f 105/138/136 109/230/226 106/231/227
f 105/138/136 106/231/227 102/140/138
f 102/140/138 106/231/227 103/232/228
f 102/140/138 103/232/228 99/142/140
f 99/142/140 103/232/228 100/233/229
f 99/142/140 100/233/229 96/82/82
f 96/82/82 100/233/229 97/234/230
f 96/82/82 97/234/230 93/84/84
f 93/84/84 97/234/230 94/235/201
f 94/205/201 95/146/144 181/206/202
f 181/206/202 95/146/144 182/144/142
f 181/206/202 182/144/142 178/207/203
f 178/207/203 182/144/142 179/204/200
f 178/207/203 179/204/200 175/208/204
f 175/208/204 179/204/200 176/202/198
f 175/208/204 176/202/198 172/209/205
f 172/209/205 176/202/198 173/200/196
f 172/209/205 173/200/196 169/210/206
f 169/210/206 173/200/196 170/198/194
f 169/210/206 170/198/194 166/211/207
f 166/211/207 170/198/194 167/196/192
f 166/211/207 167/196/192 163/212/208
f 163/212/208 167/196/192 164/194/190
f 163/212/208 164/194/190 160/213/209
f 160/213/209 164/194/190 161/192/188
f 160/213/209 161/192/188 157/214/210
f 157/214/210 161/192/188 158/190/186
f 157/214/210 158/190/186 154/215/211
f 154/215/211 158/190/186 155/188/184
f 154/215/211 155/188/184 151/216/212
f 151/216/212 155/188/184 152/186/182
f 151/216/212 152/186/182 148/217/213
f 148/217/213 152/186/182 149/184/180
f 148/217/213 149/184/180 145/218/214
f 145/218/214 149/184/180 146/182/178
f 145/218/214 146/182/178 142/219/215
f 142/219/215 146/182/178 143/180/176
f 142/219/215 143/180/176 139/220/216
f 139/220/216 143/180/176 140/178/174
f 139/220/216 140/178/174 136/221/217
f 136/221/217 140/178/174 137/176/172
f 136/221/217 137/176/172 133/222/218
f 133/222/218 137/176/172 134/174/170
f 133/222/218 134/174/170 130/223/219
f 130/223/219 134/174/170 131/172/168
f 130/223/219 131/172/168 127/224/220
f 127/224/220 131/172/168 128/170/166
f 127/224/220 128/170/166 124/225/221
f 124/225/221 128/170/166 125/168/164
f 124/225/221 125/168/164 121/226/222
f 121/226/222 125/168/164 122/166/162
f 121/226/222 122/166/162 118/227/223
f 118/227/223 122/166/162 119/164/160
f 118/227/223 119/164/160 115/228/224
f 115/228/224 119/164/160 116/162/158
f 115/228/224 116/162/158 112/229/225
f 112/229/225 116/162/158 113/160/156
f 112/229/225 113/160/156 109/230/226
f 109/230/226 113/160/156 110/158/154
f 109/230/226 110/158/154 106/231/227
f 106/231/227 110/158/154 107/156/152
f 106/231/227 107/156/152 103/232/228
f 103/232/228 107/156/152 104/154/150
f 103/232/228 104/154/150 100/233/229
f 100/233/229 104/154/150 101/152/148
f 100/233/229 101/152/148 97/234/230
f 97/234/230 101/152/148 98/150/146
f 97/234/230 98/150/146 94/235/201
f 94/235/201 98/150/146 95/148/144
f 62/236/231 49/237/232 33/238/233
f 33/238/233 49/237/232 48/239/234
f 33/238/233 48/239/234 34/240/235
f 34/240/235 48/239/234 47/241/236
f 34/240/235 47/241/236 35/242/237
f 35/242/237 47/241/236 46/243/238
f 35/242/237 46/243/238 36/244/239
f 36/244/239 46/243/238 45/245/240
f 36/244/239 45/245/240 37/246/241
f 37/246/241 45/245/240 44/247/242
f 37/246/241 44/247/242 38/248/243
f 38/248/243 44/247/242 43/249/244
f 38/248/243 43/249/244 39/250/245
f 39/250/245 43/249/244 42/251/246
f 39/250/245 42/251/246 40/252/247
f 40/252/247 42/251/246 41/253/248
f 49/237/232 62/236/231 50/254/249
f 50/254/249 62/236/231 61/255/250
f 50/254/249 61/255/250 51/256/251
f 51/256/251 61/255/250 60/257/252
f 51/256/251 60/257/252 52/258/253
f 52/258/253 60/257/252 59/259/254
f 52/258/253 59/259/254 53/260/255
f 53/260/255 59/259/254 58/261/256
f 53/260/255 58/261/256 54/262/257
f 54/262/257 58/261/256 57/263/258
f 54/262/257 57/263/258 55/264/259
f 55/264/259 57/263/258 56/265/260
f 9/266/261 183/267/262 10/268/263
f 10/268/263 183/267/262 184/269/264
f 10/268/263 184/269/264 15/270/265
f 15/270/265 184/269/264 185/271/266
f 15/270/265 185/271/266 13/272/267
f 13/272/267 185/271/266 186/273/268
f 13/272/267 186/273/268 9/266/261
f 9/266/261 186/273/268 183/267/262
f 1/274/269 187/275/270 2/276/271
f 2/276/271 187/275/270 188/277/272
f 2/276/271 188/277/272 7/278/273
f 7/278/273 188/277/272 189/279/274
f 7/278/273 189/279/274 5/280/275
f 5/280/275 189/279/274 190/281/276
f 5/280/275 190/281/276 1/274/269
f 1/274/269 190/281/276 187/275/270
f 25/282/277 190/283/278 26/284/279
f 26/284/279 190/283/278 189/285/280
f 26/284/279 189/285/280 31/286/281
f 31/286/281 189/285/280 184/287/282
f 31/286/281 184/287/282 29/288/283
f 29/288/283 184/287/282 183/289/284
f 29/288/283 183/289/284 25/282/277
f 25/282/277 183/289/284 190/283/278
f 17/290/285 186/291/286 18/292/287
f 18/292/287 186/291/286 185/293/288
f 18/292/287 185/293/288 23/294/289
f 23/294/289 185/293/288 188/295/290
f 23/294/289 188/295/290 21/296/291
f 21/296/291 188/295/290 187/297/292
f 21/296/291 187/297/292 17/290/285
f 17/290/285 187/297/292 186/291/286
f 187/298/293 190/299/294 186/300/295
f 186/300/295 190/299/294 183/301/296
f 92/302/297 184/303/298 63/304/299
f 63/304/299 184/303/298 189/305/300
f 63/304/299 189/305/300 64/306/301
f 64/306/301 189/305/300 65/307/302
f 65/307/302 189/305/300 66/308/303
f 66/308/303 189/305/300 67/309/304
f 67/309/304 189/305/300 68/310/305
f 68/310/305 189/305/300 69/311/306
f 69/311/306 189/305/300 70/312/307
f 70/312/307 189/305/300 188/313/308
f 70/312/307 188/313/308 71/314/309
f 71/314/309 188/313/308 72/315/310
f 72/315/310 188/313/308 73/316/311
f 73/316/311 188/313/308 74/317/312
f 74/317/312 188/313/308 75/318/313
f 75/318/313 188/313/308 76/319/314
f 76/319/314 188/313/308 77/320/315
f 77/320/315 188/313/308 78/321/316
f 78/321/316 188/313/308 185/322/317
f 78/321/316 185/322/317 79/323/318
f 79/323/318 185/322/317 80/324/319
f 80/324/319 185/322/317 81/325/320
f 81/325/320 185/322/317 82/326/321
f 82/326/321 185/322/317 83/327/322
f 83/327/322 185/322/317 84/328/323
f 84/328/323 185/322/317 85/329/324
f 85/329/324 185/322/317 184/303/298
f 85/329/324 184/303/298 86/330/325
f 86/330/325 184/303/298 87/331/326
f 87/331/326 184/303/298 88/332/327
f 88/332/327 184/303/298 89/333/328
f 89/333/328 184/303/298 90/334/329
f 90/334/329 184/303/298 91/335/330
f 91/335/330 184/303/298 92/302/297
# 190 vertices
# 335 texture params
# 330 normals
# 376 facets

# 1 groups
